<?xml version="1.0" standalone="no"?>
<!DOCTYPE svg PUBLIC "-//W3C//DTD SVG 20010904//EN"
 "http://www.w3.org/TR/2001/REC-SVG-20010904/DTD/svg10.dtd">
<svg version="1.0" xmlns="http://www.w3.org/2000/svg"
 width="512.000000pt" height="512.000000pt" viewBox="0 0 512.000000 512.000000"
 preserveAspectRatio="xMidYMid meet">

<g transform="translate(0.000000,512.000000) scale(0.100000,-0.100000)"
fill="#1a50db" stroke="none">
<path d="M2484 5091 c-101 -26 -194 -102 -241 -199 l-28 -57 -3 -750 -3 -750
-1085 -694 c-597 -382 -1094 -706 -1105 -719 -18 -23 -19 -43 -19 -272 0 -233
1 -249 20 -273 11 -14 33 -28 48 -32 31 -6 18 -11 1377 479 l760 273 3 -599
c2 -468 -1 -606 -11 -626 -7 -15 -100 -100 -207 -190 -107 -89 -221 -185 -252
-213 l-58 -50 0 -179 0 -178 31 -26 c17 -14 38 -26 48 -26 10 0 191 52 403
115 212 63 392 115 399 115 8 0 188 -52 402 -116 258 -77 396 -114 412 -110
13 3 34 16 45 28 19 20 20 35 20 199 l0 178 -57 50 c-32 28 -146 124 -253 213
-107 90 -200 175 -207 190 -10 20 -13 158 -11 626 l3 600 1054 -379 c813 -293
1061 -378 1082 -374 16 4 38 18 49 32 19 24 20 40 20 275 l0 250 -32 32 c-18
17 -515 339 -1105 716 l-1072 685 -3 755 -3 755 -29 58 c-57 112 -172 187
-295 193 -36 2 -80 0 -97 -5z"/>
</g>
</svg>
