<?xml version="1.0" encoding="utf-8"?>
<!-- Generator: Adobe Illustrator 27.5.0, SVG Export Plug-In . SVG Version: 6.00 Build 0)  -->
<svg version="1.1" id="Ebene_1" xmlns="http://www.w3.org/2000/svg" xmlns:xlink="http://www.w3.org/1999/xlink" x="0px" y="0px"
	 viewBox="0 0 1236 923.1" style="enable-background:new 0 0 1236 923.1;" xml:space="preserve">
<style type="text/css">
	.st0{fill:#020933;}
	.st1{fill:#1AB1DB;}
</style>
<g>
	<g>
		<rect x="647.2" y="488.8" class="st0" width="49.4" height="216.3"/>
		<path class="st0" d="M1009.1,594.3c5.9-9.1,8.9-19.5,8.9-31.4v-0.6c0-22.7-7.6-40.6-22.8-53.8c-15.2-13.1-38.6-19.7-70-19.7h-176
			v216.3h48.1V637h127.9c9.6,0,17.6,1,23.9,3.1c6.4,2.1,11,5.4,13.9,9.8c2.9,4.5,4.4,10.4,4.4,17.7v37.5h48.5v-37.5
			c0-11.9-2.7-22.2-8.1-30.9c-5.4-8.8-13.5-15.6-24.4-20.6C994.6,610.6,1003.2,603.3,1009.1,594.3z M969.5,563.8
			c0,10.8-3.6,18.7-10.8,23.6c-7.2,4.9-18.4,7.3-33.6,7.3H797.3v-62.8h127.9c15.2,0,26.4,2.6,33.6,7.7c7.2,5.1,10.8,13.1,10.8,23.9
			V563.8z"/>
		<path class="st0" d="M711.5,270.8c7-3.3,16.5-5,28.6-5h175.7c10.6,0,18.8,1.6,24.4,4.8c5.6,3.2,8.4,8.4,8.4,15.5
			c0,4.4-0.7,7.9-2.2,10.6c-1.5,2.7-4.2,5.2-8.3,7.5c-4.1,2.3-9.8,4.6-17.4,6.9L653.2,378v16.6v5v36.3h351.4v-41.3H727l33.4-4.7
			l173.2-41c1.5-0.2,3-0.5,4.7-0.9c1.7-0.4,3.2-0.8,4.7-1.3c14-3.7,25-8.3,33.1-13.8c8.1-5.4,14.1-11.9,18-19.4
			c3.9-7.5,5.8-16.7,5.8-27.5c0-15.4-3.6-28.1-10.8-38c-7.2-9.9-17-17.1-29.5-21.7c-12.5-4.6-27.1-6.9-43.8-6.9H740.1
			c-26.5,0-47.3,4-62.5,11.9c-15.2,7.9-25.7,20.8-31.6,38.8l51.3,17.2C699.8,279.6,704.5,274.1,711.5,270.8z"/>
	</g>
	<g>
		<g>
			<path class="st1" d="M352.6,434.5c14.1,1.6,33.5,3.1,57.5,3.1c24,0,43.4-1.5,57.6-3.1c16.7-1.9,31.3-12.1,39-27.1l97.3-187.8
				h-57.5l-77.2,150.5c-3.5,6.8-9.8,11.6-17.2,13.2c-10.2,2.1-25.7,3.7-41.9,3.7c-16.3,0-31.8-1.5-41.9-3.7
				c-7.4-1.6-13.8-6.4-17.2-13.2l-76.5-150.5H218l95.7,187.8C321.3,422.4,335.9,432.5,352.6,434.5z"/>
			<path class="st1" d="M469.3,491c-14.1-1.6-33.5-3.1-57.5-3.1c-24,0-43.4,1.5-57.6,3.1c-16.7,1.9-31.3,12.1-39,27.1L218,705.9
				h57.5l77.2-150.5c3.5-6.8,9.8-11.6,17.2-13.2c10.2-2.1,25.7-3.7,41.9-3.7s31.8,1.5,41.9,3.7c7.4,1.6,13.8,6.4,17.2,13.2
				l76.5,150.5h56.4l-95.7-187.8C500.6,503.2,486,493,469.3,491z"/>
		</g>
	</g>
</g>
</svg>
